<?xml version="1.0" encoding="utf-8"?>
<!-- Generator: Adobe Illustrator 23.1.1, SVG Export Plug-In . SVG Version: 6.00 Build 0)  -->
<svg version="1.1" id="Layer_1" xmlns="http://www.w3.org/2000/svg" xmlns:xlink="http://www.w3.org/1999/xlink" x="0px" y="0px"
	 viewBox="0 0 126.2 126.2" style="enable-background:new 0 0 126.2 126.2;" xml:space="preserve">
<style type="text/css">
	.st0{fill:#EFEFEF;stroke:#E6E7E8;stroke-width:0.246;stroke-miterlimit:10;}
</style>
<g id="Group_108_2_">
	<g id="Group_107_1_">
		<circle id="Ellipse_55_1_" class="st0" cx="63.1" cy="63.3" r="61.4"/>
	</g>
</g>
<g id="Group_106" transform="translate(3 1)">
	<g id="Path_233" transform="translate(56 61)">
		<path d="M7.9,35.9H7.3H0.8H0.2l0-0.6l0-31.9h-14.3h-0.6V2.8v-6.4v-0.6h0.6h12l-19.7-23.8l-0.4-0.5l0.5-0.4l5-4l0.5-0.4l0.4,0.5
			L4.1-8.2l19.9-24.7l0.4-0.5l0.5,0.4l5.1,4l0.5,0.4L30-28.2l-19.8,24h12h0.6v0.6v6.4v0.6h-0.6H7.9l0,31.9L7.9,35.9z"/>
		<path d="M24.4-32.5L4.1-7.3l-20.3-25.1l-5,4L-0.8-3.6h-13.3v6.4H0.8l0,32.5h6.4l0-32.5h14.9v-6.4H8.9l20.6-24.9L24.4-32.5
			 M24.4-33.7c0.3,0,0.5,0.1,0.7,0.3l5.1,4c0.3,0.2,0.4,0.5,0.5,0.8s-0.1,0.6-0.3,0.9l-19,23h10.8c0.7,0,1.2,0.5,1.2,1.2v6.4
			c0,0.7-0.5,1.2-1.2,1.2H8.5l0,31.3c0,0.7-0.5,1.2-1.2,1.2H0.8c-0.7,0-1.2-0.5-1.2-1.2l0-31.3h-13.7c-0.7,0-1.2-0.5-1.2-1.2v-6.4
			c0-0.7,0.5-1.2,1.2-1.2h10.8l-18.9-22.9c-0.2-0.2-0.3-0.6-0.3-0.9c0-0.3,0.2-0.6,0.4-0.8l5-4c0.2-0.2,0.5-0.3,0.7-0.3
			c0.3,0,0.7,0.2,0.9,0.4l19.4,24l19.4-24.1C23.7-33.6,24.1-33.7,24.4-33.7z"/>
	</g>
</g>
</svg>
