<svg xmlns="http://www.w3.org/2000/svg" viewBox="0 0 221.25 221.25"><defs><style>.cls-1{fill:#f6f6f6;stroke:#ccc;stroke-miterlimit:10;stroke-width:0.25px;}</style></defs><title>yup-logo-circle</title><g id="Layer_2" data-name="Layer 2"><g id="Layer_1-2" data-name="Layer 1"><circle class="cls-1" cx="110.63" cy="110.63" r="110.5"/><circle cx="77.18" cy="50.55" r="11.85"/><path d="M157,42.8l-7.83-3.94a3,3,0,0,0-3.61.66,5,5,0,0,0-.48.62L114,93.75l-11.22,19-.16.36-.07.16a3.31,3.31,0,0,0-.12.45,1.85,1.85,0,0,0,0,.23v0l-.06.87V181.7a3.86,3.86,0,0,0,3.85,3.75h11.95c1.8,0,3.43-1.89,3.43-4V116.88a9.15,9.15,0,0,1,.93-4l37.41-64C161.35,46.16,160.24,44.49,157,42.8Z"/></g></g></svg>